<svg data-name="Favi Logo" xmlns="http://www.w3.org/2000/svg" viewBox="0 0 98 44">
  <path d="M25.995,27.178a.725.725,0,0,0,.719-.723V16.927h6.723a.7.7,0,0,0,.39-.08.632.632,0,0,0,.187-.337L35.1,10.977a.509.509,0,0,0-.06-.446c-.117-.135-.478-.138-.478-.138h-7.85V8.445c0-.9.288-1.152,1.189-1.152H35.41a.578.578,0,0,0,.353-.112.52.52,0,0,0,.14-.269L36.945,1.6V1.119A.751.751,0,0,0,36.225.4C34.748.217,31.037,0,27.9,0,23.362,0,18.21,1.047,18.21,8.445v8.762a44.821,44.821,0,0,1,3.049,9.971Z" transform="translate(-6.764)" fill="#ffffff"/>
  <path d="M45.778,27.224h7.5a.811.811,0,0,0,.756-.723l.646-4.04h5.476L60.8,26.5a.811.811,0,0,0,.759.723h7.494c.467,0,.61-.327.54-.723L65.3,4.7C64.585,1.019,61.813.045,57.416.045s-7.169.974-7.889,4.655L45.24,26.5c-.072.4.07.723.537.723M57.092,7.407c.036-.287.072-.469.324-.469s.289.182.325.469l1.331,8.412H55.76Z" transform="translate(-16.819 -0.018)" fill="#ffffff"/>
  <path d="M85.256,23.1c.719,3.682,3.492,4.655,7.889,4.655s7.169-.974,7.892-4.655l4.287-21.8c.072-.4-.073-.723-.541-.723H97.29a.809.809,0,0,0-.759.723L93.47,20.39c-.036.287-.073.469-.325.469s-.288-.182-.324-.469L89.759,1.3A.807.807,0,0,0,89,.577h-7.5c-.467,0-.61.324-.537.723Z" transform="translate(-30.108 -0.215)" fill="#ffffff"/>
  <path d="M133.163,9.053c0-6.378-3.827-8.036-7.793-8.371-.238-.018-.371-.052-.524.091a.683.683,0,0,0-.189.526V27.063a.729.729,0,0,0,.724.723h4.411c.265-1.433,1.384-7.052,3.371-10.837Z" transform="translate(-46.358 -0.248)" fill="#ffffff"/>
  <path d="M89.389,48.667a19.2,19.2,0,0,0,5.359-.889C97.231,44.96,97.987,30.517,98,22.633c-.646-.034-1.466-.065-2.346-.065-3.4,0-5.2.462-5.737.894-2.373,1.9-4.326,8.785-5,12.681l-.226,1.293H13.307l-.223-1.29c-.677-3.9-2.634-10.79-5-12.684-.54-.432-2.331-.894-5.736-.894-.879,0-1.7.031-2.346.065C.013,30.517.768,44.96,3.248,47.778a19.063,19.063,0,0,0,5.362.889l1.183.068.249,1.162.529,2.485H13.38l.516-2.247.278-1.207H83.825l.278,1.207.516,2.247h2.806l.531-2.485.249-1.162Z" transform="translate(0 -8.383)" fill="#ffffff"/>
</svg>
